<?xml version="1.0" encoding="utf-8"?>
<!-- Generator: Adobe Illustrator 22.1.0, SVG Export Plug-In . SVG Version: 6.00 Build 0)  -->
<svg version="1.1" id="Calque_1" xmlns="http://www.w3.org/2000/svg" xmlns:xlink="http://www.w3.org/1999/xlink" x="0px" y="0px"
	 viewBox="0 0 145.4 232.5" style="enable-background:new 0 0 145.4 232.5;" xml:space="preserve">
<style type="text/css">
	.st0{fill:#FFFFFF;}
</style>
<g>
	<polygon class="st0" points="144.2,123 66.5,45.4 75.4,36.5 101.5,62.5 102.7,63.7 103.8,62.5 119.6,46.8 120.7,45.7 119.6,44.5 
		76.5,1.5 75.4,0.3 74.2,1.5 64.9,10.8 64.9,10.8 31.5,44.2 30.3,45.4 31.5,46.5 64.9,79.9 64.9,79.9 109.3,124.2 73.8,159.6 
		64.9,150.7 64.9,150.7 64.9,150.6 58.3,144.2 57.8,143.7 57.2,143.7 25.7,143.7 21.7,143.7 24.6,146.5 64.9,186.8 64.9,186.8 
		72.7,194.6 73.8,195.8 75,194.6 144.2,125.4 145.4,124.2 	"/>
	<polygon class="st0" points="59.1,135.6 82.5,135.6 83,135.1 94.1,124 95.3,122.8 94.1,121.6 83,110.5 82.5,110 59.1,110 59.1,110 
		25.6,110 25.6,0 0,0 0,135.6 59.1,135.6 	"/>
	<polygon class="st0" points="15,216.5 15.8,212.1 3.2,212.1 0,232.3 12.5,232.3 13.2,227.9 5.2,227.9 5.8,224.3 12.6,224.3 
		13.3,219.9 6.5,219.9 7.1,216.5 	"/>
	<path class="st0" d="M24.8,216.2c0.8,0,2.3-0.1,3.3,1.2l3.3-3.1c-1.3-1.7-3.2-2.4-5.8-2.4c-4.2,0-7.2,2.7-7.7,6.4
		c-0.3,1.7-0.1,3.1,0.6,4.1c0.7,0.9,1.8,1.5,3.4,1.8l2.2,0.3c0.6,0.1,0.9,0.3,1.1,0.5c0.2,0.3,0.2,0.7,0.2,1.2
		c-0.2,1.2-1.1,1.8-2.9,1.8c-1.5,0-3.1-0.4-3.9-1.4l-3.4,3.2c1.5,2.1,3.7,2.7,6.6,2.7c3.9,0,7.5-2.2,8.1-6.4
		c0.3-1.9,0.2-3.4-0.7-4.4c-0.6-0.9-1.7-1.4-3.3-1.7l-2.2-0.3c-0.6-0.1-1-0.3-1.2-0.6c-0.2-0.3-0.3-0.7-0.2-0.9
		C22.4,217.2,23.2,216.2,24.8,216.2z"/>
	<path class="st0" d="M43.2,212.1h-7.3l-3.2,20.2h4.5l1.2-7.2h2.8c4.1,0,6.8-3.2,7.3-6.5C48.9,215.2,47.2,212.1,43.2,212.1z
		 M43.9,218.6c-0.2,1.1-1.1,2-2.3,2H39l0.7-4.1h2.6C43.5,216.5,44,217.5,43.9,218.6z"/>
	<path class="st0" d="M59.3,211.9c-2.2,0-3.9,0.8-5.5,2.3c-2.3,2.1-2.7,5-3.1,8c-0.5,3-1,5.9,0.6,8c1.1,1.5,2.5,2.3,4.8,2.3
		s3.9-0.8,5.5-2.3c2.3-2.1,2.7-5,3.1-8c0.5-3,1-5.9-0.6-8C63,212.7,61.5,211.9,59.3,211.9z M60.1,222.2c-0.6,3.7-1,4.3-1.5,4.9
		c-0.4,0.5-1.1,0.9-2,0.9s-1.4-0.4-1.7-0.9c-0.3-0.6-0.5-1.3,0.1-4.9c0.6-3.7,1-4.4,1.5-5c0.4-0.5,1.1-0.9,2-0.9
		c0.8,0,1.4,0.4,1.7,0.9C60.6,217.8,60.7,218.5,60.1,222.2z"/>
	<path class="st0" d="M77.5,212.1h-7.3l-3.2,20.2h4.5l1.2-7.5h1.5l2,7.5h5.2l-2.6-8.4c1.6-0.8,3.4-2.5,3.8-5.3
		C83.2,215.2,81.6,212.1,77.5,212.1z M78.2,218.6c-0.2,1.1-1.1,2-2.3,2h-2.6l0.7-4.1h2.6C77.8,216.5,78.4,217.5,78.2,218.6z"/>
	<polygon class="st0" points="100.3,212.1 86.7,212.1 86,216.5 90.5,216.5 88,232.3 92.5,232.3 95.1,216.5 99.6,216.5 	"/>
	<path class="st0" d="M108.8,216.2c0.8,0,2.3-0.1,3.3,1.2l3.3-3.1c-1.3-1.7-3.2-2.4-5.8-2.4c-4.2,0-7.2,2.7-7.7,6.4
		c-0.3,1.7-0.1,3.1,0.6,4.1c0.7,0.9,1.8,1.5,3.4,1.8l2.2,0.3c0.6,0.1,0.9,0.3,1.1,0.5c0.2,0.3,0.2,0.7,0.2,1.2
		c-0.2,1.2-1.1,1.8-2.9,1.8c-1.5,0-3.1-0.4-3.9-1.4l-3.4,3.2c1.5,2.1,3.7,2.7,6.6,2.7c3.9,0,7.5-2.2,8.1-6.4
		c0.3-1.9,0.2-3.4-0.7-4.4c-0.6-0.9-1.7-1.4-3.3-1.7l-2.2-0.3c-0.6-0.1-1-0.3-1.2-0.6c-0.2-0.3-0.3-0.7-0.2-0.9
		C106.4,217.2,107.2,216.2,108.8,216.2z"/>
</g>
</svg>
