<svg version="1.1" id="Calque_1" xmlns="http://www.w3.org/2000/svg" x="0" y="0" viewBox="0 0 145.4 232.5" xml:space="preserve"><style>.st0{fill:#fff}</style><path class="st0" d="M144.2 123L66.5 45.4l8.9-8.9 26.1 26 1.2 1.2 1.1-1.2 15.8-15.7 1.1-1.1-1.1-1.2-43.1-43L75.4.3l-1.2 1.2-9.3 9.3-33.4 33.4-1.2 1.2 1.2 1.1 33.4 33.4 44.4 44.3-35.5 35.4-8.9-8.9v-.1l-6.6-6.4-.5-.5H21.7l2.9 2.8 40.3 40.3 7.8 7.8 1.1 1.2 1.2-1.2 69.2-69.2 1.2-1.2z"/><path class="st0" d="M59.1 135.6h23.4l.5-.5L94.1 124l1.2-1.2-1.2-1.2L83 110.5l-.5-.5H25.6V0H0v135.6h59.1zM15 216.5l.8-4.4H3.2L0 232.3h12.5l.7-4.4h-8l.6-3.6h6.8l.7-4.4H6.5l.6-3.4zM24.8 216.2c.8 0 2.3-.1 3.3 1.2l3.3-3.1c-1.3-1.7-3.2-2.4-5.8-2.4-4.2 0-7.2 2.7-7.7 6.4-.3 1.7-.1 3.1.6 4.1.7.9 1.8 1.5 3.4 1.8l2.2.3c.6.1.9.3 1.1.5.2.3.2.7.2 1.2-.2 1.2-1.1 1.8-2.9 1.8-1.5 0-3.1-.4-3.9-1.4l-3.4 3.2c1.5 2.1 3.7 2.7 6.6 2.7 3.9 0 7.5-2.2 8.1-6.4.3-1.9.2-3.4-.7-4.4-.6-.9-1.7-1.4-3.3-1.7l-2.2-.3c-.6-.1-1-.3-1.2-.6-.2-.3-.3-.7-.2-.9.1-1 .9-2 2.5-2zM43.2 212.1h-7.3l-3.2 20.2h4.5l1.2-7.2h2.8c4.1 0 6.8-3.2 7.3-6.5.4-3.4-1.3-6.5-5.3-6.5zm.7 6.5c-.2 1.1-1.1 2-2.3 2H39l.7-4.1h2.6c1.2 0 1.7 1 1.6 2.1zM59.3 211.9c-2.2 0-3.9.8-5.5 2.3-2.3 2.1-2.7 5-3.1 8-.5 3-1 5.9.6 8 1.1 1.5 2.5 2.3 4.8 2.3s3.9-.8 5.5-2.3c2.3-2.1 2.7-5 3.1-8 .5-3 1-5.9-.6-8-1.1-1.5-2.6-2.3-4.8-2.3zm.8 10.3c-.6 3.7-1 4.3-1.5 4.9-.4.5-1.1.9-2 .9s-1.4-.4-1.7-.9c-.3-.6-.5-1.3.1-4.9.6-3.7 1-4.4 1.5-5 .4-.5 1.1-.9 2-.9.8 0 1.4.4 1.7.9.4.6.5 1.3-.1 5zM77.5 212.1h-7.3L67 232.3h4.5l1.2-7.5h1.5l2 7.5h5.2l-2.6-8.4c1.6-.8 3.4-2.5 3.8-5.3.6-3.4-1-6.5-5.1-6.5zm.7 6.5c-.2 1.1-1.1 2-2.3 2h-2.6l.7-4.1h2.6c1.2 0 1.8 1 1.6 2.1zM100.3 212.1H86.7l-.7 4.4h4.5L88 232.3h4.5l2.6-15.8h4.5zM108.8 216.2c.8 0 2.3-.1 3.3 1.2l3.3-3.1c-1.3-1.7-3.2-2.4-5.8-2.4-4.2 0-7.2 2.7-7.7 6.4-.3 1.7-.1 3.1.6 4.1.7.9 1.8 1.5 3.4 1.8l2.2.3c.6.1.9.3 1.1.5.2.3.2.7.2 1.2-.2 1.2-1.1 1.8-2.9 1.8-1.5 0-3.1-.4-3.9-1.4l-3.4 3.2c1.5 2.1 3.7 2.7 6.6 2.7 3.9 0 7.5-2.2 8.1-6.4.3-1.9.2-3.4-.7-4.4-.6-.9-1.7-1.4-3.3-1.7l-2.2-.3c-.6-.1-1-.3-1.2-.6-.2-.3-.3-.7-.2-.9.1-1 .9-2 2.5-2z"/></svg>
